<?xml version="1.0" standalone="no"?>
<!DOCTYPE svg PUBLIC "-//W3C//DTD SVG 20010904//EN"
 "http://www.w3.org/TR/2001/REC-SVG-20010904/DTD/svg10.dtd">
<svg version="1.0" xmlns="http://www.w3.org/2000/svg"
 width="603.000000pt" height="603.000000pt" viewBox="0 0 603.000000 603.000000"
 preserveAspectRatio="xMidYMid meet">
<metadata>
Created by potrace 1.14, written by Peter Selinger 2001-2017
</metadata>
<g transform="translate(0.000000,603.000000) scale(0.100000,-0.100000)"
fill="#000000" stroke="none">
<path d="M2780 5763 c-78 -5 -252 -44 -330 -75 -182 -72 -302 -149 -383 -246
-17 -22 -27 -28 -27 -18 0 31 -20 15 -84 -71 -36 -49 -72 -97 -80 -108 -15
-19 -15 -19 -16 7 0 15 -5 30 -11 33 -20 13 -75 -79 -85 -145 -6 -34 -13 -44
-43 -60 -20 -10 -58 -41 -85 -69 -27 -27 -54 -47 -59 -44 -6 3 -7 1 -3 -5 4
-6 -5 -35 -20 -63 -17 -34 -27 -72 -29 -109 -1 -31 -8 -67 -15 -79 -57 -107
-100 -391 -74 -488 9 -32 32 -29 36 5 3 15 2 -49 0 -143 -3 -93 0 -216 7 -272
14 -127 54 -332 77 -395 17 -45 17 -48 0 -67 -41 -45 -58 -207 -36 -323 14
-69 70 -218 83 -218 5 0 6 -8 3 -17 -4 -10 -4 -14 0 -11 4 4 27 -11 53 -34 49
-43 115 -77 170 -87 33 -6 41 -16 97 -116 58 -103 201 -248 321 -325 40 -26
70 -50 65 -55 -4 -5 -1 -5 6 -1 7 4 39 -7 75 -26 34 -19 99 -49 144 -67 l81
-33 -2 -68 c-2 -57 -7 -73 -27 -95 -31 -33 -74 -56 -92 -49 -12 4 -162 -42
-325 -101 -62 -22 -170 -76 -238 -120 -115 -74 -232 -220 -326 -410 -58 -116
-84 -192 -108 -318 -22 -119 -69 -442 -72 -507 -3 -41 -1 -45 21 -48 22 -3 23
-7 16 -50 -15 -97 -21 -163 -16 -166 11 -7 52 14 47 23 -8 12 11 148 23 169 7
12 9 9 8 -13 -1 -17 -5 -33 -10 -36 -4 -3 -5 -13 -1 -23 5 -14 9 -15 15 -4 5
7 9 8 9 2 0 -6 6 -11 13 -11 6 0 83 -4 170 -8 115 -6 157 -5 157 4 0 6 8 11
18 11 15 0 18 -8 17 -52 l0 -51 315 1 c173 1 422 5 553 8 l237 7 1 41 c1 23 1
44 0 49 0 4 3 7 8 7 13 0 21 -26 21 -66 0 -27 4 -34 20 -34 17 0 20 7 20 45 0
36 3 43 16 38 9 -3 15 -16 14 -32 -4 -57 -9 -55 118 -48 64 4 289 7 500 7 368
1 382 2 382 20 0 19 16 35 35 35 5 0 13 19 18 42 6 30 13 42 25 41 9 0 67 3
127 8 61 4 124 8 141 9 22 0 30 4 26 14 -4 11 -1 11 16 2 13 -7 22 -21 22 -36
0 -44 23 -125 36 -125 20 0 23 12 13 68 -5 28 -13 76 -18 105 -5 31 -5 54 0
58 8 5 -29 172 -62 275 -5 17 -11 40 -13 50 -9 43 -109 377 -126 419 -63 154
-128 258 -225 357 -113 114 -198 160 -471 254 -149 50 -171 60 -192 81 -7 7
-26 13 -42 13 -16 0 -32 5 -35 10 -3 6 -17 10 -30 10 -35 0 -58 41 -61 109 -1
31 -4 63 -8 72 -6 13 6 21 55 39 169 61 321 158 464 295 57 55 158 184 191
244 23 44 33 52 78 67 153 50 233 136 285 303 19 61 23 90 19 170 -4 101 -15
129 -77 189 l-23 23 30 82 c40 104 49 140 78 312 30 178 38 307 26 415 -7 59
-7 89 0 98 15 17 3 297 -18 422 -8 52 -12 101 -9 109 3 9 3 12 -1 9 -3 -4 -25
48 -48 115 -37 108 -83 200 -144 290 -43 63 -192 203 -272 255 -217 141 -548
269 -755 293 -80 9 -265 10 -395 2z m-564 -1075 c5 -7 3 -8 -6 -3 -8 5 -11 3
-8 -6 3 -8 11 -14 19 -14 20 -1 39 -14 39 -28 0 -8 -3 -8 -12 1 -17 17 -33 15
-18 -3 11 -13 10 -14 -4 -9 -9 3 -16 12 -16 20 0 8 -4 14 -8 14 -11 0 -45 -60
-38 -67 3 -3 8 2 12 11 3 9 10 16 15 16 6 0 5 -9 -1 -21 -6 -11 -17 -18 -23
-16 -17 5 -40 -21 -33 -39 3 -9 2 -12 -5 -9 -5 4 -17 1 -27 -7 -9 -7 -5 2 8
21 14 18 30 40 35 49 6 10 18 29 28 44 9 14 17 33 17 42 0 19 16 21 26 4z
m117 -127 c-3 -3 -8 0 -10 7 -3 6 -9 12 -15 12 -12 0 -32 21 -36 39 -1 7 13
-2 32 -20 20 -18 33 -35 29 -38z m397 -22 c0 -4 8 -5 18 -2 10 2 24 -3 31 -11
25 -30 -23 -18 -65 15 -52 41 -55 46 -16 23 17 -10 32 -21 32 -25z m195 31 c3
-6 -1 -7 -9 -4 -18 7 -21 14 -7 14 6 0 13 -4 16 -10z m-557 -35 c-3 -3 -9 2
-12 12 -6 14 -5 15 5 6 7 -7 10 -15 7 -18z m136 0 c3 -8 0 -17 -7 -21 -7 -4
-9 -3 -4 1 4 5 -1 17 -10 27 -15 17 -15 18 -1 13 9 -4 19 -13 22 -20z m490 4
c-6 -11 -24 -2 -24 11 0 5 7 7 15 4 8 -4 12 -10 9 -15z m-769 1 c-3 -6 1 -7 9
-4 10 4 18 -1 22 -11 6 -15 35 -32 57 -33 5 0 18 -11 30 -25 20 -21 90 -50
109 -44 4 1 14 -7 23 -18 9 -13 13 -14 10 -4 -7 19 22 22 29 2 4 -9 27 -13 78
-13 59 0 76 4 94 21 13 12 34 22 48 22 14 0 24 2 22 6 -3 4 4 7 15 7 10 0 19
-4 19 -9 0 -4 4 -6 9 -3 5 4 22 1 37 -4 16 -6 78 -13 139 -16 158 -7 184 -9
240 -23 28 -6 72 -10 98 -8 26 3 47 1 47 -4 0 -10 141 -6 158 5 7 4 16 5 19 2
4 -3 2 -6 -4 -6 -5 0 -10 -7 -10 -15 0 -9 4 -11 11 -6 16 13 78 11 95 -2 12
-10 13 -9 6 3 -7 13 -6 13 7 2 9 -7 26 -15 38 -17 46 -9 61 -17 56 -31 -3 -7
4 -18 14 -24 14 -8 20 -8 20 0 0 6 5 8 10 5 6 -4 7 -12 4 -18 -4 -7 -4 -9 0
-5 5 4 25 -2 44 -13 20 -10 45 -19 54 -19 10 0 18 -5 18 -11 0 -6 7 -8 16 -5
8 3 12 2 9 -4 -3 -6 1 -10 10 -10 8 0 20 -10 25 -22 7 -19 9 -20 9 -5 1 10 -6
25 -14 33 -8 8 -18 21 -22 27 -5 7 -21 23 -37 35 -20 15 -24 22 -12 22 9 0 25
-10 35 -22 11 -13 29 -34 40 -47 12 -13 21 -32 21 -42 0 -10 7 -22 16 -27 10
-6 16 -24 17 -53 1 -28 8 -50 19 -59 19 -16 44 -104 53 -180 2 -25 10 -67 16
-95 10 -42 13 -47 21 -30 7 16 7 15 2 -5 -3 -14 -8 -79 -9 -145 -13 -440 -16
-478 -49 -630 -32 -146 -72 -266 -94 -282 -9 -7 -13 -13 -9 -13 11 0 -44 -97
-75 -130 -15 -17 -28 -34 -28 -38 0 -4 -33 -41 -74 -81 -49 -48 -78 -71 -87
-66 -8 5 -10 4 -5 -4 4 -7 -2 -20 -16 -31 -46 -40 -154 -108 -190 -121 -21 -7
-38 -16 -38 -20 0 -4 -26 -17 -57 -29 -32 -13 -64 -28 -70 -33 -7 -5 -20 -7
-28 -3 -8 3 -15 0 -15 -6 0 -7 -12 -8 -32 -4 -18 3 -27 2 -20 -2 8 -5 -6 -14
-40 -24 -113 -34 -167 -42 -278 -43 -92 0 -131 5 -197 24 -46 13 -80 28 -77
32 3 5 -3 8 -13 6 -26 -3 -184 74 -176 86 3 6 1 7 -5 3 -17 -10 -83 26 -77 42
4 11 2 12 -8 4 -16 -14 -101 33 -91 50 4 7 2 8 -4 4 -13 -8 -74 33 -66 45 2 4
-1 11 -7 15 -8 5 -9 3 -4 -6 5 -8 3 -11 -6 -8 -8 3 -13 12 -11 19 2 8 0 11 -4
6 -10 -9 -55 33 -48 45 3 5 0 7 -7 6 -33 -7 -242 323 -254 402 -2 14 -13 57
-25 95 -33 114 -64 332 -50 355 4 6 1 37 -6 68 -16 65 -17 78 -7 68 4 -3 13 6
19 21 l13 28 -4 -30 -5 -30 11 28 c8 21 8 32 0 40 -6 6 -11 18 -11 27 0 13 1
13 10 0 8 -12 10 -11 10 7 0 12 -9 27 -20 33 -11 6 -19 18 -19 28 1 16 2 16 6
0 2 -10 13 -18 23 -18 16 0 18 6 15 40 -2 21 2 60 10 85 7 26 12 56 10 68 -3
11 0 26 6 34 6 7 11 39 11 70 0 32 7 70 14 85 8 15 14 46 14 69 0 24 7 50 15
59 13 14 27 89 28 148 0 6 3 10 5 7 6 -5 28 24 32 40 1 6 8 17 16 26 8 9 11
19 7 23 -5 4 -2 6 6 4 7 -1 16 3 19 11 3 8 0 11 -7 7 -6 -4 -14 0 -17 8 -4 11
-15 14 -30 12 -14 -3 -22 -1 -19 5 4 5 11 7 16 4 5 -4 9 0 9 7 1 24 44 68 59
59 9 -6 10 -11 2 -15 -6 -4 -11 -2 -11 5 0 6 -9 0 -21 -15 -11 -14 -17 -31
-13 -37 5 -8 10 -6 16 5 8 14 13 15 24 5 10 -8 11 -15 4 -24 -7 -9 -7 -15 -1
-19 5 -4 12 3 16 14 3 11 12 20 19 20 24 0 155 164 142 177 -6 6 16 32 27 33
5 0 5 -4 2 -10z m824 -19 c7 -5 12 -13 10 -18 -2 -5 -12 -1 -21 9 -19 19 -13
24 11 9z m-183 -23 c3 -5 -6 -6 -23 -2 -40 9 -50 22 -13 16 17 -2 33 -8 36
-14z m-311 -18 c8 0 15 5 15 10 0 6 -5 10 -12 10 -6 0 -8 3 -5 6 4 4 12 2 19
-4 7 -5 29 -11 48 -13 19 -2 39 -5 44 -7 11 -6 -14 -22 -34 -22 -13 0 -13 1 0
10 11 7 5 10 -22 10 -21 0 -38 -5 -38 -10 0 -6 -13 -4 -30 5 -17 9 -28 21 -24
27 4 7 10 5 16 -6 5 -9 16 -16 23 -16z m-481 5 c-6 -16 -24 -21 -24 -7 0 11
11 22 21 22 5 0 6 -7 3 -15z m426 11 c0 -2 -7 -7 -16 -10 -8 -3 -12 -2 -9 4 6
10 25 14 25 6z m407 -12 c-3 -3 -12 -4 -19 -1 -8 3 -5 6 6 6 11 1 17 -2 13 -5z
m213 2 c0 -2 -7 -7 -16 -10 -8 -3 -12 -2 -9 4 6 10 25 14 25 6z m-106 -14 c2
-4 -7 -8 -22 -9 -24 -2 -24 -1 -7 7 11 5 21 9 22 9 1 1 4 -3 7 -7z m176 -2
c-8 -5 -19 -10 -25 -10 -5 0 -3 5 5 10 8 5 20 10 25 10 6 0 3 -5 -5 -10z
m-1155 -20 c-3 -5 -1 -10 5 -10 6 0 8 -5 4 -11 -4 -8 -9 -7 -15 2 -7 12 -3 29
7 29 3 0 2 -4 -1 -10z m1596 -17 c13 -16 12 -17 -3 -4 -17 13 -22 21 -14 21 2
0 10 -8 17 -17z m-284 1 c-3 -3 -12 -4 -19 -1 -8 3 -5 6 6 6 11 1 17 -2 13 -5z
m93 -10 c0 -2 -18 -4 -40 -4 -22 0 -40 3 -40 8 0 4 18 6 40 4 22 -2 40 -6 40
-8z m-43 -20 c-3 -3 -12 -4 -19 -1 -8 3 -5 6 6 6 11 1 17 -2 13 -5z m303 -14
c0 -5 -5 -10 -11 -10 -5 0 -7 5 -4 10 3 6 8 10 11 10 2 0 4 -4 4 -10z m-303
-6 c-3 -3 -12 -4 -19 -1 -8 3 -5 6 6 6 11 1 17 -2 13 -5z m373 -34 c0 -5 -2
-10 -4 -10 -3 0 -8 5 -11 10 -3 6 -1 10 4 10 6 0 11 -4 11 -10z m70 -41 c0 -6
-4 -7 -10 -4 -5 3 -10 11 -10 16 0 6 5 7 10 4 6 -3 10 -11 10 -16z m-30 1 c0
-5 -2 -10 -4 -10 -3 0 -8 5 -11 10 -3 6 -1 10 4 10 6 0 11 -4 11 -10z m-1840
-12 c0 -4 -4 -8 -10 -8 -5 0 -9 -6 -7 -12 1 -7 -9 -14 -23 -16 -14 -2 -35 -13
-47 -25 -34 -31 -28 -1 6 32 16 16 28 31 26 33 -2 1 10 3 26 3 16 1 29 -3 29
-7z m2100 -105 c0 -7 -4 -13 -9 -13 -5 0 -8 12 -8 26 0 18 2 22 8 13 5 -8 9
-20 9 -26z m-2206 -15 c-4 -6 -11 -25 -15 -42 l-7 -31 -1 31 c-1 16 4 35 11
42 15 15 21 15 12 0z m2226 -51 c6 -21 9 -42 6 -45 -3 -3 -6 2 -6 11 0 8 -6
22 -13 29 -20 20 -27 45 -12 45 7 0 18 -18 25 -40z m-2223 -29 c-3 -7 -5 -2
-5 12 0 14 2 19 5 13 2 -7 2 -19 0 -25z m2207 6 c3 -8 2 -12 -4 -9 -6 3 -10
10 -10 16 0 14 7 11 14 -7z m-2234 -45 c0 8 2 12 5 9 3 -3 2 -13 -1 -22 -5
-14 -9 -15 -15 -4 -5 7 -9 18 -9 23 0 6 5 3 10 -5 8 -12 10 -12 10 -1z m2267
-11 c-3 -8 -6 -5 -6 6 -1 11 2 17 5 13 3 -3 4 -12 1 -19z m-2290 -60 c-3 -8
-6 -5 -6 6 -1 11 2 17 5 13 3 -3 4 -12 1 -19z m2304 -69 c-5 -13 -10 -19 -10
-12 -1 15 10 45 15 40 3 -2 0 -15 -5 -28z m6 -96 c-3 -10 -5 -2 -5 17 0 19 2
27 5 18 2 -10 2 -26 0 -35z m-2317 -42 c0 -6 -4 -13 -10 -16 -5 -3 -10 1 -10
9 0 9 5 16 10 16 6 0 10 -4 10 -9z m-16 -141 c1 -38 -2 -62 -6 -52 -9 23 -10
137 -1 128 4 -3 7 -38 7 -76z m-16 -175 c-2 -49 -17 -44 -16 5 0 22 4 37 9 34
5 -2 8 -20 7 -39z m-92 -157 c33 -23 44 -51 44 -115 0 -32 -2 -35 -22 -28 -31
11 -129 7 -144 -6 -9 -7 -11 3 -8 43 2 28 9 55 15 59 6 4 8 12 4 19 -10 17 24
50 53 50 14 0 40 -10 58 -22z m2607 -19 c28 -30 39 -69 25 -87 -11 -13 -10
-15 5 -9 15 6 17 0 16 -41 -1 -26 -4 -37 -6 -25 -2 12 -10 27 -18 33 -11 9
-12 7 -8 -12 5 -18 3 -21 -7 -11 -8 7 -10 19 -5 30 5 10 7 22 6 27 -1 5 2 12
7 15 4 3 6 17 2 31 l-6 25 -8 -22 c-4 -13 -12 -23 -19 -23 -8 0 -8 3 1 12 14
14 16 28 3 28 -5 0 -13 -9 -16 -20 -4 -11 -11 -18 -16 -15 -5 4 -5 14 1 25 7
13 7 21 -2 26 -7 5 -8 2 -3 -7 7 -12 5 -12 -6 -1 -12 11 -12 14 1 22 11 7 5
10 -22 10 -35 0 -38 -2 -37 -27 0 -24 2 -25 8 -9 7 17 8 18 14 3 3 -9 2 -19
-4 -22 -5 -4 -7 -11 -4 -16 4 -5 1 -9 -4 -9 -6 0 -11 -4 -11 -9 0 -5 12 -8 28
-6 l27 4 -29 -13 c-22 -10 -33 -11 -42 -2 -6 6 -8 13 -4 16 4 3 7 14 7 25 -1
59 3 74 26 78 35 7 80 -4 100 -24z m-128 -118 c3 -5 2 -12 -3 -15 -5 -3 -9 1
-9 9 0 17 3 19 12 6z m115 -37 c0 -21 -17 -17 -23 5 -3 14 -1 18 9 14 8 -3 14
-11 14 -19z m-33 -32 c-3 -12 -5 -10 -6 6 0 13 -5 20 -11 17 -11 -7 -14 8 -3
19 10 10 25 -22 20 -42z m-2657 6 c0 -5 -9 -3 -20 4 -11 7 -20 16 -20 20 0 5
9 3 20 -4 11 -7 20 -16 20 -20z m2720 -21 c0 -18 -2 -19 -10 -7 -13 20 -13 43
0 35 6 -3 10 -16 10 -28z m-2737 -25 c-4 -10 -2 -13 5 -8 11 7 16 -6 15 -40 0
-14 37 -11 46 5 5 7 8 0 9 -19 0 -18 7 -39 15 -49 18 -21 42 -83 39 -98 -1 -6
2 -14 8 -18 5 -3 7 0 4 8 -3 8 2 17 10 20 8 3 20 16 26 28 7 12 8 19 3 16 -5
-3 -14 3 -21 13 -10 16 -9 18 3 14 11 -5 13 -2 8 12 -6 16 -5 17 9 6 15 -12
35 -85 29 -106 -1 -5 2 -12 6 -15 9 -6 54 -123 50 -128 -5 -5 -137 64 -157 82
-11 10 -20 24 -20 32 0 8 -4 12 -9 9 -14 -9 -63 103 -55 126 4 13 2 18 -4 14
-12 -7 -26 29 -17 44 4 6 2 16 -3 23 -5 7 -12 28 -15 47 -6 32 -5 33 7 17 8
-11 12 -26 9 -35z m77 39 c0 -6 -4 -12 -8 -15 -5 -3 -9 1 -9 9 0 8 4 15 9 15
4 0 8 -4 8 -9z m90 -45 c0 -19 -7 -39 -15 -46 -17 -14 -21 -35 -5 -25 6 3 10
-1 10 -9 0 -19 -16 -21 -23 -3 -8 20 4 71 13 56 5 -7 8 4 8 25 0 42 -5 45 -18
14 -9 -23 -9 -23 -9 -1 -1 21 16 35 32 26 4 -2 7 -19 7 -37z m2527 12 c-3 -7
-5 -2 -5 12 0 14 2 19 5 13 2 -7 2 -19 0 -25z m-77 2 c0 -5 -4 -10 -10 -10 -5
0 -10 5 -10 10 0 6 5 10 10 10 6 0 10 -4 10 -10z m-34 -39 c-1 -16 -5 -33 -9
-37 -10 -10 -9 -36 2 -30 5 3 12 -2 16 -12 7 -16 8 -15 16 3 6 14 8 6 6 -30
-1 -39 1 -50 14 -53 11 -2 22 10 32 36 9 22 23 42 31 45 9 4 16 14 16 24 1 10
8 29 16 43 l15 25 -6 -28 c-4 -19 -2 -26 5 -22 14 9 -28 -96 -47 -118 -9 -9
-21 -27 -28 -40 -6 -12 -17 -21 -23 -19 -7 1 -11 -2 -9 -7 3 -14 -43 -50 -91
-73 -46 -20 -63 -18 -44 5 7 8 9 17 5 20 -3 4 -1 7 5 7 7 0 11 3 11 8 -1 4 -1
21 0 37 1 20 4 26 9 17 6 -8 9 0 9 20 0 57 24 158 36 151 6 -4 8 0 4 10 -6 15
0 47 8 47 1 0 2 -13 1 -29z m44 15 c0 -3 -4 -8 -10 -11 -5 -3 -10 -1 -10 4 0
6 5 11 10 11 6 0 10 -2 10 -4z m127 -28 c-3 -7 -5 -2 -5 12 0 14 2 19 5 13 2
-7 2 -19 0 -25z m-134 -19 c-8 -8 -13 -7 -18 2 -5 8 -4 10 3 5 7 -4 12 -2 12
5 0 7 3 9 7 6 4 -4 2 -12 -4 -18z m77 -11 c0 -23 -3 -29 -9 -19 -8 12 -4 51 5
51 2 0 4 -15 4 -32z m-1020 -968 c0 -5 -4 -10 -10 -10 -5 0 -10 5 -10 10 0 6
5 10 10 10 6 0 10 -4 10 -10z m-565 -10 c3 -5 1 -10 -4 -10 -6 0 -11 5 -11 10
0 6 2 10 4 10 3 0 8 -4 11 -10z m517 -17 c-12 -3 -20 -8 -18 -12 3 -4 -4 -7
-14 -7 -10 0 -16 4 -14 8 7 11 -1 10 -29 -3 -16 -7 -31 -8 -42 -2 -14 8 -11
10 15 11 18 0 34 2 36 4 1 2 22 4 46 4 24 1 33 -1 20 -3z m58 -3 c0 -5 -8 -10
-17 -10 -15 0 -16 2 -3 10 19 12 20 12 20 0z m-493 -6 c-3 -3 -12 -4 -19 -1
-8 3 -5 6 6 6 11 1 17 -2 13 -5z m-88 -20 c4 3 7 -4 7 -14 0 -14 -3 -16 -13
-8 -7 6 -13 18 -12 27 0 10 2 12 6 3 2 -6 8 -10 12 -8z m368 10 c-3 -3 -12 -4
-19 -1 -8 3 -5 6 6 6 11 1 17 -2 13 -5z m210 -26 c-3 -8 -6 -5 -6 6 -1 11 2
17 5 13 3 -3 4 -12 1 -19z m8 -39 c-7 -21 38 -99 57 -99 39 0 -115 -218 -155
-220 -5 0 -22 -9 -38 -21 -16 -11 -34 -17 -40 -13 -7 4 -9 3 -6 -3 10 -16
-111 -32 -173 -23 -58 8 -144 39 -185 66 -38 25 -146 157 -140 172 2 7 0 10
-5 7 -17 -11 -11 11 11 39 12 15 27 25 35 22 7 -3 16 -1 19 4 4 6 1 10 -5 10
-6 0 -8 4 -5 10 3 6 17 -1 31 -15 14 -14 37 -27 52 -31 15 -3 38 -10 52 -16
13 -5 84 -12 157 -15 131 -6 132 -5 163 20 17 15 39 24 50 22 11 -2 18 0 15 4
-6 11 18 32 42 36 10 1 17 7 16 12 -4 22 26 8 32 -15 10 -39 15 -20 6 21 -5
21 -5 35 0 31 5 -3 9 0 9 5 0 6 3 11 6 11 3 0 2 -9 -1 -21z m-279 -1007 c6 -4
14 -23 18 -42 l6 -35 -55 1 c-30 0 -58 3 -61 6 -8 8 23 65 38 71 19 8 42 8 54
-1z m217 -44 c28 -9 37 -16 37 -34 0 -21 -1 -21 -31 7 -18 16 -34 27 -38 24
-3 -3 -1 -9 5 -13 17 -12 44 -60 44 -79 0 -10 14 -31 30 -47 17 -16 30 -34 30
-41 0 -22 -26 -47 -45 -44 -19 4 -30 32 -42 107 -4 22 -11 32 -23 32 -9 0 -25
9 -35 20 -10 11 -28 20 -41 20 -12 0 -30 8 -40 17 -16 16 -15 18 10 28 35 15
93 16 139 3z m-319 -60 c15 -29 15 -33 -2 -48 -21 -20 -43 -15 -35 8 3 9 3 14
-1 11 -4 -4 -9 -18 -12 -33 -3 -19 0 -26 11 -26 8 0 15 -4 15 -8 0 -5 7 -9 15
-9 8 0 15 9 15 19 0 10 4 18 10 18 5 0 7 -6 4 -13 -6 -18 30 -64 39 -49 4 6 0
18 -9 26 -8 9 -10 16 -4 16 6 0 13 -7 16 -15 5 -12 9 -12 29 1 16 10 24 12 27
4 4 -13 78 -3 78 11 0 16 -20 20 -42 8 -16 -8 -23 -9 -26 -1 -2 8 -11 8 -28 2
-18 -7 -23 -7 -18 1 5 9 -1 10 -20 5 -33 -8 -31 12 3 36 23 15 26 15 50 0 14
-9 22 -11 18 -5 -6 10 0 11 25 7 31 -6 51 -21 62 -48 3 -7 11 -4 20 8 15 19
16 19 22 0 4 -10 9 -23 12 -28 2 -4 -6 -5 -18 -1 -22 7 -23 5 -17 -34 4 -35 3
-40 -9 -30 -7 6 -11 15 -8 20 3 5 1 9 -4 9 -5 0 -12 -9 -15 -20 -4 -14 -14
-20 -34 -20 -16 0 -34 -5 -40 -11 -9 -9 -14 -3 -21 22 -6 19 -11 28 -11 21 -1
-9 -8 -11 -21 -7 -14 4 -20 2 -20 -8 0 -17 27 -30 42 -20 7 3 8 1 4 -5 -15
-24 5 -30 54 -17 28 7 48 9 44 4 -3 -5 -13 -9 -22 -10 -11 0 -12 -2 -4 -6 7
-3 20 1 28 8 31 25 54 21 61 -11 4 -24 11 -30 32 -30 44 0 70 11 77 32 4 14
13 18 32 16 32 -4 45 -43 37 -111 -3 -27 -2 -54 3 -60 15 -21 35 -95 28 -106
-10 -16 -32 -14 -50 5 -15 14 -16 13 -16 -15 0 -16 -4 -33 -10 -36 -5 -3 -10
-17 -10 -31 0 -35 -25 -40 -69 -16 -21 12 -42 18 -46 14 -4 -4 0 5 9 20 12 19
24 25 42 23 27 -3 54 18 54 41 0 8 4 13 9 10 5 -3 12 2 15 11 4 10 1 20 -9 25
-9 6 -15 23 -15 43 0 31 3 35 25 35 18 0 25 5 25 20 0 22 -29 27 -47 9 -9 -9
-20 -9 -43 0 -34 11 -50 8 -50 -11 0 -6 -7 -20 -17 -30 -15 -17 -15 -18 8 -19
13 -1 31 -3 39 -4 8 -1 21 -3 28 -4 6 0 12 -5 12 -11 0 -5 -7 -7 -15 -4 -21 9
-45 -14 -45 -42 0 -16 -6 -24 -17 -24 -10 0 -36 -7 -58 -15 -22 -8 -55 -14
-72 -15 -29 0 -33 3 -33 28 0 15 9 46 19 68 24 52 14 74 -22 55 -33 -18 -42
-10 -56 43 -6 25 -15 48 -21 51 -5 3 -10 11 -10 16 0 6 5 7 11 3 8 -4 8 0 0
15 -7 11 -17 21 -24 21 -7 0 -22 3 -34 6 -18 5 -22 1 -25 -23 -2 -23 -7 -28
-27 -25 -14 1 -30 7 -38 14 -19 15 2 38 35 38 25 0 25 1 9 17 -13 13 -19 15
-29 5 -19 -19 -28 -14 -29 16 0 24 -1 25 -9 7 -5 -11 -9 -15 -10 -10 -1 6 -3
20 -6 33 -3 17 2 25 22 32 20 8 25 15 21 33 -5 17 1 27 28 45 19 12 35 27 35
32 0 22 30 8 44 -22z m-124 -48 c0 -5 -5 -10 -11 -10 -5 0 -7 5 -4 10 3 6 8
10 11 10 2 0 4 -4 4 -10z m-20 -229 c-17 -33 -38 -45 -55 -31 -23 19 -18 37
13 53 33 16 57 4 42 -22z m57 -29 c6 -11 8 -25 3 -32 -6 -9 0 -20 16 -32 22
-18 22 -21 8 -35 -23 -24 -13 -46 30 -62 36 -14 39 -14 55 8 9 12 20 19 24 15
4 -4 2 -13 -4 -20 -15 -19 -30 -85 -23 -107 4 -12 12 -16 25 -12 20 7 27 -9 8
-20 -5 -4 -14 -18 -19 -31 -5 -13 -14 -24 -19 -24 -19 0 -42 32 -36 51 20 62
-30 112 -107 107 l-43 -3 3 72 c5 116 45 179 79 125z m103 -28 c0 -9 -7 -14
-17 -12 -11 2 -17 -2 -15 -10 2 -10 -4 -12 -20 -7 -31 10 -32 12 -17 28 18 19
69 20 69 1z m1600 -94 c0 -5 -5 -10 -11 -10 -5 0 -7 5 -4 10 3 6 8 10 11 10 2
0 4 -4 4 -10z m-187 -27 c-7 -2 -19 -2 -25 0 -7 3 -2 5 12 5 14 0 19 -2 13 -5z
m-153 -13 c0 -5 -4 -10 -10 -10 -5 0 -10 5 -10 10 0 6 5 10 10 10 6 0 10 -4
10 -10z m68 3 c-10 -2 -28 -2 -40 0 -13 2 -5 4 17 4 22 1 32 -1 23 -4z m-101
-25 c-3 -8 -6 -5 -6 6 -1 11 2 17 5 13 3 -3 4 -12 1 -19z m-2237 -40 c0 -6 -6
-5 -15 2 -8 7 -15 14 -15 16 0 2 7 1 15 -2 8 -4 15 -11 15 -16z m25 2 c3 -5 1
-10 -4 -10 -6 0 -11 5 -11 10 0 6 2 10 4 10 3 0 8 -4 11 -10z"/>
<path d="M1996 4334 c-9 -23 -2 -28 13 -10 7 8 8 17 3 20 -6 3 -13 -1 -16 -10z"/>
<path d="M2095 3911 c-22 -10 -66 -39 -97 -64 -31 -25 -59 -43 -63 -39 -3 3
-3 -1 1 -11 3 -10 1 -17 -5 -17 -6 0 -11 -11 -11 -24 0 -21 4 -24 28 -20 15 3
35 6 45 7 9 1 17 4 17 8 0 4 33 15 74 24 55 12 107 16 203 12 136 -4 169 -9
213 -32 38 -19 46 -7 52 75 3 36 3 60 1 53 -3 -8 -13 -7 -34 4 -40 20 -203 43
-304 43 -56 0 -92 -6 -120 -19z"/>
<path d="M3539 3926 c-2 -3 -33 -7 -69 -11 -84 -8 -158 -33 -164 -54 -8 -25 3
-94 17 -103 16 -10 37 -10 37 0 0 4 8 8 18 9 9 1 35 6 57 11 22 6 103 10 179
10 123 0 146 -3 198 -25 33 -13 77 -25 98 -27 38 -3 38 -3 28 25 -5 16 -14 31
-18 34 -4 3 -7 13 -5 23 1 9 0 11 -2 4 -3 -8 -22 2 -56 30 -60 50 -68 59 -60
72 3 5 1 6 -6 2 -6 -4 -9 -11 -6 -16 3 -4 -4 -6 -15 -3 -11 3 -23 9 -26 14 -5
9 -197 13 -205 5z"/>
<path d="M3261 3784 c0 -11 3 -14 6 -6 3 7 2 16 -1 19 -3 4 -6 -2 -5 -13z"/>
<path d="M3600 3660 c-48 -6 -96 -34 -128 -75 -11 -13 -23 -21 -27 -17 -5 4
-5 1 -1 -6 4 -7 2 -37 -4 -66 -20 -96 20 -180 105 -217 35 -16 46 -16 95 -5
120 28 155 71 155 190 0 114 -22 145 -135 195 -8 4 -35 4 -60 1z m26 -81 c3
-6 1 -16 -5 -22 -9 -9 -14 -8 -21 3 -5 8 -10 18 -10 23 0 11 28 8 36 -4z"/>
<path d="M2287 3627 c3 -5 -11 -5 -31 -2 -39 8 -120 -24 -130 -51 -3 -8 -11
-12 -16 -9 -6 4 -10 3 -9 -2 3 -18 -2 -32 -17 -47 -21 -21 -26 -155 -6 -175 7
-7 10 -21 7 -29 -3 -9 -3 -13 1 -9 4 4 16 0 26 -10 18 -17 25 -39 9 -28 -5 3
-12 1 -16 -4 -3 -6 3 -8 15 -6 11 2 32 -3 47 -11 71 -36 190 0 230 72 40 69
28 192 -23 245 -14 15 -26 31 -26 36 1 4 -5 7 -13 5 -19 -4 -30 18 -15 28 8 5
4 8 -13 7 -14 -1 -23 -6 -20 -10z m-34 -73 c9 -10 -4 -34 -19 -34 -8 0 -14 6
-14 13 0 22 19 35 33 21z"/>
<path d="M2416 3543 c-6 -14 -5 -15 5 -6 7 7 10 15 7 18 -3 3 -9 -2 -12 -12z"/>
<path d="M2065 3539 c-4 -6 -5 -12 -2 -15 2 -3 7 2 10 11 7 17 1 20 -8 4z"/>
<path d="M3416 3377 c3 -10 9 -15 12 -12 3 3 0 11 -7 18 -10 9 -11 8 -5 -6z"/>
<path d="M2411 3307 c-13 -21 -12 -21 5 -5 10 10 16 20 13 22 -3 3 -11 -5 -18
-17z"/>
<path d="M3675 3260 c-3 -6 1 -7 9 -4 18 7 21 14 7 14 -6 0 -13 -4 -16 -10z"/>
<path d="M3640 3132 c-14 -2 -31 -9 -39 -15 -12 -9 -13 -9 -7 1 14 23 -5 12
-44 -27 -21 -21 -46 -41 -55 -44 -18 -8 -20 -33 -2 -35 43 -4 77 -25 77 -48 0
-21 -31 -17 -56 7 -25 23 -39 20 -47 -11 -4 -15 3 -25 24 -37 28 -17 42 -41
17 -28 -7 4 -5 0 4 -8 10 -8 14 -17 10 -21 -4 -4 -2 -6 4 -4 7 2 22 -8 35 -22
20 -21 32 -25 74 -23 83 2 145 24 145 50 0 8 4 11 10 8 6 -4 7 1 3 11 -5 13
-3 15 7 9 9 -5 11 -4 6 4 -4 6 -3 17 3 24 16 20 22 70 12 104 -6 21 -5 35 2
43 7 8 7 10 1 7 -6 -3 -16 3 -24 13 -8 10 -17 17 -22 14 -4 -3 -8 0 -8 6 0 7
-7 10 -15 6 -8 -3 -15 0 -15 6 0 6 -2 9 -6 6 -3 -3 -19 -3 -37 1 -18 4 -43 5
-57 3z m78 -139 c-4 -22 -22 -20 -26 1 -2 10 3 16 13 16 10 0 15 -7 13 -17z"/>
<path d="M2216 3061 c-4 -5 -17 -8 -31 -7 -13 2 -22 0 -20 -4 3 -4 -3 -14 -12
-21 -12 -10 -14 -10 -9 -1 4 7 2 12 -4 12 -6 0 -8 6 -5 13 4 6 0 3 -9 -8 -8
-11 -23 -29 -34 -40 -32 -35 -48 -69 -50 -107 -2 -25 2 -38 10 -38 9 0 8 -3
-2 -10 -13 -9 -13 -10 0 -10 10 0 11 -3 4 -8 -8 -5 -5 -16 7 -37 11 -16 19
-25 19 -20 0 6 7 1 15 -9 10 -13 15 -15 15 -6 0 9 5 8 16 -6 8 -10 12 -12 8
-4 -6 12 -4 13 7 3 7 -7 21 -13 31 -13 10 0 21 -6 24 -14 3 -9 12 -12 21 -9
11 4 14 2 9 -5 -4 -7 -2 -12 3 -12 6 0 11 5 11 11 0 8 5 8 15 -1 12 -10 16 -9
21 4 3 9 10 13 15 10 5 -3 9 0 9 5 0 6 3 10 8 9 20 -5 53 16 58 38 3 13 10 24
15 24 5 0 9 8 9 19 0 10 6 24 14 30 12 10 13 24 7 111 -1 12 -3 13 -10 1 -7
-11 -10 -9 -16 8 -3 12 -11 19 -16 16 -5 -4 -9 -1 -9 5 0 6 -4 8 -10 5 -5 -3
-10 -1 -10 5 0 6 -4 8 -10 5 -6 -3 -10 4 -11 17 0 22 -1 22 -9 3 -5 -11 -9
-14 -9 -7 -1 7 -6 10 -13 6 -6 -4 -9 -3 -5 2 3 5 -1 18 -9 29 -8 10 -14 13
-14 7 0 -7 -9 -12 -21 -12 -11 0 -17 5 -14 10 3 6 4 10 1 10 -3 0 -7 -4 -10
-9z m-32 -157 c10 -25 7 -51 -7 -62 -20 -17 -39 20 -27 53 11 28 25 32 34 9z
m126 -38 c-14 -18 -40 -21 -40 -6 0 6 6 19 12 30 11 17 14 18 27 5 12 -11 12
-17 1 -29z"/>
<path d="M2880 2997 c0 -6 3 -7 6 -4 4 4 15 -8 24 -26 18 -34 60 -50 60 -24 0
9 3 23 7 33 4 12 3 15 -5 10 -7 -4 -12 -1 -12 8 0 12 -10 15 -40 14 -22 -1
-40 -6 -40 -11z"/>
<path d="M2690 2756 c0 -2 9 -6 20 -9 11 -3 18 -1 14 4 -5 9 -34 13 -34 5z"/>
<path d="M2335 2730 c-3 -6 1 -7 9 -4 18 7 21 14 7 14 -6 0 -13 -4 -16 -10z"/>
<path d="M3143 2720 c-28 -10 -54 -16 -57 -13 -3 3 -13 0 -22 -8 -27 -22 -214
-25 -294 -4 -117 30 -120 30 -120 7 0 -16 10 -24 40 -33 34 -10 38 -14 27 -28
-11 -14 -10 -14 5 -2 15 11 24 11 48 1 20 -8 69 -11 157 -8 108 4 141 9 212
34 87 30 106 46 74 62 -12 6 -34 4 -70 -8z"/>
<path d="M3807 2499 c7 -7 15 -10 18 -7 3 3 -2 9 -12 12 -14 6 -15 5 -6 -5z"/>
<path d="M2103 2435 c0 -8 4 -12 9 -9 5 3 6 10 3 15 -9 13 -12 11 -12 -6z"/>
<path d="M1935 4291 c-3 -5 -2 -12 3 -15 5 -3 9 1 9 9 0 17 -3 19 -12 6z"/>
<path d="M1760 2871 c0 -6 4 -13 10 -16 6 -3 7 1 4 9 -7 18 -14 21 -14 7z"/>
<path d="M1690 2786 c0 -2 7 -7 16 -10 8 -3 12 -2 9 4 -6 10 -25 14 -25 6z"/>
<path d="M4291 2974 c0 -11 3 -14 6 -6 3 7 2 16 -1 19 -3 4 -6 -2 -5 -13z"/>
<path d="M2725 1620 c-4 -6 1 -7 11 -3 13 5 15 3 9 -7 -5 -9 -4 -11 4 -6 6 4
9 12 6 17 -8 12 -22 12 -30 -1z"/>
<path d="M3008 1543 c7 -3 16 -2 19 1 4 3 -2 6 -13 5 -11 0 -14 -3 -6 -6z"/>
<path d="M2860 794 c0 -13 18 -39 24 -34 2 3 -2 14 -10 24 -8 11 -14 16 -14
10z"/>
<path d="M2950 750 c-13 -8 -13 -10 2 -10 9 0 20 5 23 10 8 13 -5 13 -25 0z"/>
<path d="M3003 666 c2 -6 16 -10 31 -9 18 1 24 -2 19 -10 -4 -7 0 -6 10 2 9 7
15 17 12 21 -7 12 -76 8 -72 -4z"/>
<path d="M3018 633 c7 -3 16 -2 19 1 4 3 -2 6 -13 5 -11 0 -14 -3 -6 -6z"/>
<path d="M2942 578 c2 -13 9 -23 17 -23 23 0 24 23 1 35 -19 10 -21 9 -18 -12z"/>
<path d="M3068 563 c7 -3 16 -2 19 1 4 3 -2 6 -13 5 -11 0 -14 -3 -6 -6z"/>
<path d="M3085 500 c3 -5 10 -10 16 -10 5 0 9 5 9 10 0 6 -7 10 -16 10 -8 0
-12 -4 -9 -10z"/>
<path d="M4145 176 c-17 -12 -17 -13 3 -11 26 2 37 11 24 19 -5 3 -17 -1 -27
-8z"/>
</g>
</svg>
